<?xml version="1.0" encoding="UTF-8"?>
<svg id="Layer_1" xmlns="http://www.w3.org/2000/svg" version="1.1" viewBox="0 0 82 82">
  <!-- Generator: Adobe Illustrator 29.7.1, SVG Export Plug-In . SVG Version: 2.1.1 Build 8)  -->
  <defs>
    <style>
      .st0 {
        fill: #f36d1e;
      }
    </style>
  </defs>
  <path class="st0" d="M0,11.07v-1.64c2.36.08,4.66-.79,6.37-2.43,2.01-1.76,3.13-4.33,3.06-7h1.64c.07.93,0,1.88.21,2.8.69,4.15,2.99,7.85,6.39,10.32.1.08.3.17.39.12.55-.29,1.07-.62,1.62-1-.45-.34-.88-.62-1.28-.94-3.49-2.7-5.52-6.88-5.48-11.3h1.53c0,.58,0,1.16.12,1.74.53,4.09,3.01,7.67,6.66,9.6.14.09.31.13.47.11.9-.24,1.79-.51,2.67-.76-5.01-1.79-7.83-5.27-8.07-10.69h1.54c0,.32,0,.65.08,1,.51,5.06,4.93,8.8,10,8.48,5-.31,8.9-4.47,8.88-9.48h1.54c.1,1.34.28,2.68.53,4,.87,3.66,3.01,6.89,6.05,9.11.13.1.37.23.47.18.55-.28,1.07-.62,1.64-1l-.31-.2c-2.93-1.9-5.04-4.82-5.94-8.19-.28-1.29-.48-2.59-.6-3.9h1.64s0,.07,0,.1c.03,4.73,2.66,9.06,6.84,11.28.11.07.25.1.38.07.9-.24,1.8-.51,2.74-.77-.49-.19-.95-.34-1.4-.53-4.09-1.71-6.73-5.72-6.71-10.15h1.53c0,.41,0,.82.09,1.22.39,3.69,2.98,6.77,6.54,7.78,3.48,1.23,7.36.2,9.78-2.58,1.64-1.74,2.55-4.03,2.56-6.42h1.53c0,5.31,2.56,10.28,6.89,13.35.33-.21.6-.38.88-.54l.88-.52c-4.23-2.66-6.79-7.3-6.8-12.29h1.54v.51c.16,4.53,2.72,8.63,6.71,10.78.16.11.36.17.56.15.9-.23,1.79-.5,2.68-.75l-.05-.06c-.11-.05-.22-.09-.34-.12-2.96-.95-5.37-3.12-6.65-5.95-.62-1.44-.96-2.99-1-4.56h1.64c-.08,2.4.83,4.73,2.51,6.45,1.75,1.97,4.28,3.07,6.92,3v1.64c-1.21.05-2.41.18-3.6.38-8.78,1.93-14.34,10.61-12.41,19.39.38,1.72,1.03,3.38,1.94,4.89,1.15,1.95,2.71,3.62,4.57,4.91l1.75-1-.32-.29c-6.64-4.37-8.47-13.3-4.1-19.93.38-.58.81-1.14,1.27-1.66,2.69-3.17,6.67-4.96,10.83-4.86v1.53c-.63,0-1.27,0-1.89.13-7.05,1.05-11.91,7.61-10.86,14.66.56,3.74,2.73,7.05,5.94,9.05.54.44,1.29.55,1.93.27.65-.23,1.32-.42,2-.55l-.54-.17c-5.82-1.73-9.14-7.86-7.41-13.68,1.42-4.77,5.86-7.99,10.83-7.86v1.54c-.46,0-.92.05-1.38.12-5.17.76-8.76,5.57-8,10.74.68,4.65,4.67,8.1,9.38,8.1v1.54c-.87.07-1.74.09-2.6.23-8.88,1.41-14.93,9.76-13.52,18.64.04.22.08.44.12.66.76,3.96,2.98,7.48,6.23,9.86.13.1.37.23.47.18.55-.28,1.07-.62,1.64-1l-.47-.33c-4.7-3.41-6.92-8-6.18-13.79s4.12-9.69,9.59-11.79c1.52-.51,3.11-.79,4.72-.82v1.64c-.49-.03-.99-.03-1.48,0-6.26.66-11.1,5.81-11.35,12.1-.29,5.34,2.08,9.37,6.69,12.08.12.09.27.13.42.13.93-.25,1.85-.52,2.84-.8l-.39-.13c-5.81-1.79-9.06-7.95-7.27-13.75.27-.89.66-1.74,1.15-2.54,1.94-3.33,5.54-5.33,9.39-5.24v1.53c-5.22-.02-9.47,4.2-9.49,9.43,0,2.86,1.27,5.57,3.49,7.37,1.7,1.38,3.81,2.15,6,2.18v1.52c-9,0-16.29,7.28-16.3,16.28,0,0,0,.01,0,.02h-1.53c0-.31,0-.61-.08-.92-.54-5.2-5.19-8.99-10.39-8.45-4.81.5-8.47,4.53-8.5,9.37h-1.53c.06-.98.19-1.96.39-2.93,1.31-4.83,5.73-8.16,10.74-8.07,2.17-.02,4.32-.47,6.32-1.33,2.64-1.13,4.93-2.94,6.63-5.26.12-.14.16-.33.11-.51-.26-.53-.58-1-.91-1.56l-.17.23c-2.68,4.12-7.27,6.6-12.19,6.58-4.86-.04-9.32,2.73-11.43,7.11-.96,1.76-1.42,3.74-1.34,5.74h-1.64c0-.27,0-.54.07-.81.19-4.05,2.12-7.83,5.28-10.37,2.59-2.12,5.83-3.28,9.17-3.28,4.68.04,8.99-2.5,11.23-6.61.12-.16.19-.36.19-.56-.23-.93-.51-1.85-.79-2.83l-.11.34c-1.47,4.7-5.84,7.89-10.77,7.85-6.73.2-11.61,3.45-14.59,9.48-1,2.12-1.52,4.44-1.52,6.79h-1.54c0-.41,0-.82-.09-1.22-.39-3.69-2.98-6.77-6.54-7.78-3.46-1.22-7.32-.22-9.75,2.54-1.66,1.74-2.58,4.06-2.58,6.46h-1.54c.02-.6.08-1.19.16-1.78.87-5.38,5.55-9.32,11-9.25,2.63-.01,5.22-.66,7.54-1.89,2.16-1.13,4.02-2.73,5.46-4.7.1-.13.21-.36.15-.47-.28-.54-.61-1-.94-1.6-.12.16-.22.3-.31.44-1.9,2.81-4.74,4.86-8,5.79-1.64.4-3.31.61-5,.62-6.73.49-11.93,6.1-11.91,12.84h-1.53c-.07-3.67,1.33-7.21,3.87-9.85,2.74-2.96,6.6-4.63,10.64-4.61,4.68.02,8.99-2.55,11.2-6.67.11-.15.17-.33.16-.51-.23-.92-.51-1.83-.79-2.79,0,.13-.08.21-.11.3-1.41,4.68-5.73,7.87-10.62,7.83-6.6.03-12.53,4.04-15,10.16-.84,1.93-1.25,4.03-1.2,6.14h-1.64c.08-2.44-.86-4.8-2.58-6.52-1.75-1.92-4.25-2.99-6.85-2.91v-1.64c.17,0,.34,0,.51,0,3.35-.08,6.6-1.22,9.27-3.24,1.38-1.01,2.57-2.25,3.54-3.66l-1-1.71c-.51.65-1,1.3-1.48,1.88-2.72,3.15-6.68,4.94-10.84,4.89v-1.54c4.71.04,9.06-2.54,11.29-6.69.12-.16.17-.36.16-.56-.23-.9-.51-1.79-.79-2.75-.65,2.33-2.03,4.39-3.95,5.86-1.92,1.49-4.28,2.29-6.71,2.29v-1.53l.87-.08c5.1-.46,8.9-4.89,8.58-10-.3-5-4.44-8.89-9.45-8.89v-1.53c1.57-.03,3.13-.25,4.65-.67,3.37-1,6.32-3.06,8.41-5.88.1-.13.23-.37.18-.48-.29-.55-.63-1.07-1-1.63-.1.15-.16.25-.23.34-1.8,2.72-4.46,4.75-7.56,5.76-1.45.43-2.94.67-4.45.71v-1.64h.1c4.73-.04,9.05-2.66,11.28-6.83.07-.12.09-.26.07-.39-.24-.9-.51-1.8-.74-2.62-.38.94-.83,1.85-1.33,2.73-1.95,3.32-5.53,5.33-9.38,5.27v-1.54c3.98,0,7.54-2.49,8.9-6.23,1.38-3.78.22-8.02-2.9-10.57-1.69-1.39-3.81-2.17-6-2.2v-1.5c5.3.01,10.28-2.55,13.34-6.88l-1.05-1.77c-2.67,4.22-7.3,6.78-12.29,6.8v-1.53h.41c4.55-.14,8.69-2.68,10.86-6.68.12-.18.18-.39.17-.6-.22-.91-.5-1.79-.77-2.73l-.16.44c-.91,2.92-3,5.33-5.76,6.65-1.5.67-3.11,1.04-4.75,1.07ZM64.14,27.15c-.1-5.23-4.42-9.39-9.65-9.28-5.23.1-9.39,4.42-9.28,9.65.1,5.23,4.42,9.39,9.65,9.28.05,0,.1,0,.14,0,5.17-.19,9.23-4.48,9.14-9.65ZM36.8,27.33c0-5.23-4.24-9.47-9.47-9.47-5.23,0-9.47,4.24-9.47,9.47,0,5.23,4.24,9.47,9.47,9.47,0,0,.02,0,.03,0,5.22-.02,9.44-4.25,9.44-9.47ZM17.86,54.8c.07,5.23,4.37,9.41,9.6,9.34,5.23-.07,9.41-4.37,9.34-9.6-.07-5.23-4.37-9.41-9.6-9.34-.03,0-.05,0-.08,0-5.2.12-9.33,4.4-9.26,9.6ZM64.14,54.8c.07-5.23-4.12-9.52-9.35-9.59-5.23-.07-9.52,4.12-9.59,9.35-.07,5.22,4.1,9.5,9.32,9.59,5.24.08,9.54-4.1,9.62-9.34,0,0,0-.01,0-.02h0ZM19.69,39.61l-.69-.45c-6.53-4.57-8.11-13.57-3.54-20.1.04-.06.09-.12.13-.18,2.71-3.81,7.11-6.05,11.78-6,4.36.02,8.43-2.2,10.78-5.88.58-.64.71-1.56.35-2.34-.21-.6-.38-1.21-.5-1.84-.07.22-.09.32-.13.41-1.15,3.9-4.4,6.82-8.4,7.56-1.18.17-2.37.27-3.56.3-8.97.81-15.58,8.73-14.77,17.7.12,1.35.41,2.68.86,3.95,1.06,3.07,3.03,5.75,5.65,7.67.13.1.37.21.48.15.5-.28,1.01-.56,1.56-.95ZM47.02,39.61l-.61-.43c-6.51-4.53-8.14-13.47-3.64-20,2.62-3.94,7.05-6.3,11.78-6.28,4.56.04,8.81-2.33,11.16-6.24.37-.47.46-1.11.22-1.66-.24-.71-.43-1.43-.59-2.16-.09.26-.14.42-.19.58-1.38,4.26-5.2,7.25-9.66,7.58-1.09.09-2.19.06-3.27.23-8.89,1.33-15.01,9.62-13.68,18.5.22,1.45.63,2.87,1.23,4.21,1.13,2.59,2.94,4.83,5.23,6.48.15.11.34.16.52.13.48-.27.95-.55,1.48-.94h.02ZM38.02,30.21c-.06.17-.09.27-.12.36-1.41,4.62-5.66,7.78-10.49,7.79-.63,0-1.26,0-1.89.1-8.96,1.01-15.39,9.1-14.38,18.05.18,1.62.61,3.2,1.26,4.7,1.12,2.6,2.92,4.86,5.21,6.53.15.11.34.16.52.13.52-.27,1-.59,1.56-.92l-.36-.25c-3.91-2.55-6.31-6.87-6.41-11.54-.29-7.4,5.1-13.81,12.44-14.79,1.26-.17,2.56-.1,3.82-.3,4.05-.54,7.59-3.01,9.5-6.63.09-.14.12-.31.1-.48-.24-.88-.5-1.76-.78-2.75h.02ZM47,67l-.05-.08-.21-.15c-5.12-3.66-7.27-8.61-6.22-14.81,1.11-6.08,6.01-10.76,12.14-11.58,1.27-.16,2.57-.12,3.83-.31,4.04-.52,7.58-2.95,9.51-6.53.11-.15.17-.33.16-.51-.23-.93-.51-1.85-.79-2.83-.39,1.38-1.04,2.67-1.91,3.8-2.05,2.75-5.28,4.37-8.71,4.36-9.02-.01-16.35,7.3-16.36,16.32,0,1.42.18,2.84.55,4.22.91,3.55,3.03,6.67,6,8.82.18.12.4.16.61.11.45-.24.94-.56,1.45-.83ZM24.45,65.34l-.77-.27c-5.74-1.99-8.77-8.26-6.78-14,.51-1.47,1.33-2.82,2.4-3.95,2.17-2.31,5.23-3.58,8.4-3.5,5.19-.08,10.03-2.65,13-6.9l-1-1.75-.27.38c-1.86,2.8-4.65,4.86-7.87,5.82-1.62.42-3.28.63-4.95.64-7.1.37-12.56,6.43-12.19,13.53.23,4.48,2.78,8.52,6.73,10.66.19.1.41.14.62.12.87-.25,1.74-.51,2.68-.78ZM51.78,38l-.49-.17c-5.81-1.77-9.08-7.92-7.31-13.73,1.41-4.6,5.64-7.75,10.45-7.79,1.83,0,3.65-.28,5.39-.84,3.17-1.05,5.94-3.05,7.92-5.74.11-.15.16-.34.13-.52-.26-.52-.59-1-.91-1.56l-.3.39c-2.12,3.23-5.47,5.44-9.27,6.12-1.25.24-2.55.21-3.82.33-7.06.58-12.32,6.77-11.74,13.83.02.27.05.53.09.8.5,4.01,2.9,7.53,6.45,9.47.23.14.5.2.76.16.87-.2,1.7-.47,2.65-.75ZM39.64,7.68s-.08,0-.1.07l-.18.25c-2.7,4.09-7.3,6.53-12.2,6.47-1.01.03-2.02.17-3,.41-6.89,1.76-11.04,8.77-9.28,15.66.89,3.48,3.19,6.42,6.35,8.13.14.1.3.14.47.13.91-.24,1.82-.51,2.78-.79l-.51-.18c-5.82-1.76-9.11-7.89-7.35-13.71,1.41-4.67,5.72-7.85,10.6-7.82,1.42-.03,2.83-.2,4.21-.52,3.62-.87,6.8-3,9-6,.1-.14.21-.4.15-.52-.3-.57-.58-1.07-.94-1.58ZM67,35l-.34.49c-2.65,3.95-7.1,6.32-11.86,6.31-3.25-.02-6.39,1.17-8.8,3.35-5.26,4.8-5.64,12.96-.84,18.22.96,1.05,2.09,1.94,3.34,2.63.15.1.34.14.52.13.91-.23,1.82-.51,2.77-.78l-.66-.22c-5.78-1.88-8.94-8.09-7.06-13.86,1.47-4.51,5.67-7.58,10.42-7.6,1.08-.01,2.15-.12,3.21-.31,4.05-.75,7.66-3.02,10.07-6.36.09-.12.18-.34.13-.44-.29-.51-.62-1.03-.9-1.56ZM37.4,41l3.6,3.6,3.6-3.6-3.6-3.6-3.6,3.6ZM13.72,10l-3.65,3.65,3.59,3.61,3.67-3.66c-.61-.53-1.28-1.08-1.89-1.7s-1.19-1.29-1.72-1.9ZM68.33,17.26l3.6-3.6-3.6-3.6-3.6,3.59,3.6,3.61ZM13.66,64.73l-3.59,3.61,3.6,3.59,3.6-3.6-3.61-3.6ZM72,68.28c-.6-.54-1.28-1.09-1.89-1.71s-1.19-1.31-1.71-1.89l-3.66,3.65,3.6,3.61,3.66-3.66ZM41,10.06l-3.6,3.6,3.6,3.61,3.6-3.6-3.6-3.61ZM40.94,72l3.72-3.71c-.61-.54-1.28-1.1-1.89-1.71s-1.19-1.3-1.72-1.89l-3.71,3.71c.59.53,1.27,1.07,1.88,1.69s1.18,1.29,1.72,1.91ZM71.94,41l-3.6-3.6-3.61,3.6,3.6,3.6,3.61-3.6ZM17.32,41c-.61-.55-1.28-1.1-1.9-1.72s-1.18-1.3-1.7-1.89l-3.66,3.61,3.6,3.6,3.66-3.6ZM38,51.8c.28-1,.53-1.86.77-2.73.03-.14.02-.3-.05-.43-1.19-2.26-3.03-4.12-5.29-5.33-.13-.08-.28-.11-.43-.1-.91.24-1.82.51-2.81.79,3.8,1.04,6.76,4,7.81,7.8ZM30.22,71.32c3.77,1.06,6.72,4.01,7.78,7.79.28-1,.55-1.86.79-2.76.01-.15-.02-.3-.1-.42-1.18-2.25-3.02-4.09-5.27-5.28-.18-.08-.37-.1-.56-.05-.86.21-1.71.46-2.64.72ZM2.89,44c3.78,1.06,6.73,4.01,7.79,7.78.25-.92.5-1.77.72-2.62.06-.19.04-.39-.05-.57-1.18-2.25-3.02-4.09-5.27-5.28-.12-.08-.27-.11-.42-.1-.9.24-1.8.51-2.77.79ZM30.22,16.66c3.78,1.06,6.73,4.01,7.78,7.79.27-1,.53-1.84.75-2.73.03-.18,0-.36-.09-.51-1.19-2.21-3-4.02-5.21-5.21-.16-.09-.34-.13-.52-.1-.93.23-1.77.5-2.71.76ZM2.88,71.33c3.78,1.05,6.73,4,7.79,7.78.27-.93.52-1.8.75-2.67.04-.18.01-.36-.07-.52-1.19-2.25-3.02-4.08-5.27-5.27-.16-.08-.34-.11-.52-.07-.87.23-1.73.48-2.68.75ZM65.34,24.45c.27-1,.53-1.84.76-2.73.03-.18,0-.36-.1-.52-1.18-2.21-3-4.02-5.21-5.2-.13-.07-.3-.16-.42-.12-.93.24-1.84.51-2.82.78,3.78,1.06,6.73,4.01,7.79,7.79ZM65.34,79.11c.28-1,.54-1.83.77-2.72.03-.16,0-.33-.08-.48-1.19-2.24-3.03-4.08-5.27-5.27-.13-.08-.28-.11-.43-.1-.91.25-1.8.52-2.76.79,3.77,1.06,6.71,4.01,7.76,7.78h0ZM2.89,16.66c3.77,1.06,6.72,4.01,7.78,7.78.27-1,.54-1.84.78-2.74.02-.14-.01-.29-.08-.42-1.19-2.25-3.03-4.08-5.27-5.28-.15-.08-.31-.11-.48-.09-.89.22-1.77.48-2.73.75ZM65.34,51.79c.24-.87.44-1.68.7-2.47.11-.31.07-.64-.1-.92-1.02-1.78-2.43-3.32-4.13-4.48-.68-.64-1.68-.8-2.52-.4-.58.21-1.19.37-1.8.46,3.81,1.04,6.79,4.01,7.85,7.81ZM13.34,17.94c-1-1.44-2.24-2.7-3.66-3.73-.14-.09-.32-.12-.48-.06-.51.26-1,.57-1.55.91,1.87,1.19,3.46,2.78,4.65,4.65l1.04-1.77ZM40.66,45.27c-1-1.44-2.24-2.69-3.66-3.71-.12-.09-.35-.18-.44-.13-.54.29-1,.62-1.61,1,1.87,1.16,3.46,2.72,4.66,4.57l1.05-1.73ZM62.3,15.06c1.89,1.19,3.49,2.77,4.7,4.65.32-.55.63-1,.89-1.52.07-.15.07-.33,0-.48-.98-1.37-2.17-2.56-3.54-3.54-.12-.08-.26-.09-.39-.05-.6.28-1.1.6-1.66.94ZM62.3,69.73c1.9,1.17,3.5,2.76,4.7,4.64.33-.56.63-1,.9-1.53.07-.14.07-.3,0-.44-.99-1.37-2.19-2.58-3.56-3.57-.12-.06-.27-.06-.39,0-.59.24-1.09.56-1.66.9h0ZM39.61,74.37c.33-.56.65-1.06.94-1.58.04-.14.02-.28-.06-.4-.98-1.37-2.19-2.58-3.56-3.56-.1-.08-.24-.1-.36-.06-.53.29-1,.61-1.61,1,1.87,1.17,3.46,2.74,4.65,4.6ZM7.61,42.37c1.88,1.18,3.47,2.76,4.66,4.63.34-.57.66-1.08,1-1.61.03-.12.01-.25-.06-.36-.98-1.37-2.19-2.58-3.56-3.56-.12-.08-.26-.1-.4-.06-.56.33-1.06.64-1.61.98l-.03-.02ZM66.91,47.03c.34-.58.65-1.07.92-1.58.06-.13.06-.27,0-.4-.99-1.37-2.19-2.58-3.57-3.56-.12-.06-.27-.06-.39,0-.52.28-1,.6-1.58.93,1.88,1.17,3.47,2.76,4.65,4.63l-.03-.02ZM39.61,19.71c.34-.57.65-1.06.92-1.57.05-.14.04-.3-.05-.43-.98-1.36-2.17-2.56-3.54-3.53-.11-.08-.26-.1-.39-.06-.52.28-1,.6-1.59.94,1.88,1.18,3.47,2.77,4.65,4.65ZM7.61,69.71c1.88,1.19,3.47,2.77,4.66,4.65.34-.58.66-1.08,1-1.6.04-.12.02-.25-.05-.35-1.04-1.46-2.32-2.72-3.79-3.74l-1.82,1.04Z"/>
  <path class="st0" d="M0,19.68c1.41.06,2.78.46,4,1.17,2.71,1.68,4.1,4.87,3.47,8-.63,3.1-3.12,5.49-6.24,6-.4.06-.81.08-1.22.11v-1.54l.56-.07c3.3-.26,5.77-3.16,5.5-6.46-.06-.77-.27-1.53-.62-2.22-1.02-2.07-3.14-3.38-5.45-3.35v-1.64Z"/>
  <path class="st0" d="M82,35c-4.2.05-7.65-3.32-7.69-7.52-.04-3.94,2.92-7.26,6.83-7.66.29,0,.57-.06.86-.09v1.64c-.12,0-.23,0-.35,0-3.32.49-5.61,3.58-5.11,6.9.41,2.77,2.67,4.9,5.46,5.15v1.58Z"/>
  <path class="st0" d="M82,62.32c-1.25-.06-2.47-.38-3.59-.94-3.71-1.99-5.1-6.61-3.1-10.32,1.26-2.34,3.64-3.85,6.28-4h.41v1.54l-.66.06c-3.32.36-5.72,3.35-5.36,6.67.04.34.1.68.2,1.01.75,2.59,3.13,4.36,5.82,4.34v1.64Z"/>
  <path class="st0" d="M0,47.05c3.78,0,7,2.77,7.53,6.52.6,4.17-2.3,8.03-6.46,8.62-.07,0-.14.02-.21.03l-.86.1v-1.64c.12,0,.24,0,.36,0,3.31-.16,5.86-2.98,5.7-6.28-.05-.96-.32-1.89-.8-2.72-1.06-1.91-3.07-3.09-5.26-3.09v-1.54Z"/>
  <path class="st0" d="M35,0c0,3.8-2.8,7.02-6.57,7.54-4.17.6-8.03-2.3-8.62-6.46-.01-.1-.03-.21-.04-.32,0-.25-.06-.51-.09-.76h1.64c0,.1,0,.2,0,.3.06,2.19,1.35,4.16,3.33,5.1,1.98,1.07,4.4.88,6.2-.47,1.6-1.13,2.56-2.97,2.57-4.93h1.58Z"/>
  <path class="st0" d="M19.68,82c.05-1.32.39-2.6,1-3.77,2.1-3.65,6.75-4.91,10.4-2.81,2.26,1.3,3.7,3.67,3.82,6.27v.31h-1.48c0-.19-.05-.37-.06-.56-.26-3.3-3.16-5.77-6.46-5.5-.8.06-1.57.29-2.28.65-2.06,1.01-3.34,3.12-3.3,5.41h-1.64Z"/>
  <path class="st0" d="M82,69.09c-2.7,0-5.33.87-7.51,2.45-3.26,2.31-5.25,6.01-5.38,10v.46h-1.56c.27-6.38,3.29-10.89,9.16-13.43,1.68-.69,3.48-1.03,5.29-1v1.52Z"/>
  <path class="st0" d="M47.05,82c.01-4.2,3.43-7.6,7.63-7.59,3.89,0,7.15,2.96,7.55,6.83l.09.76h-1.64c0-.12,0-.23,0-.35-.15-3.31-2.95-5.87-6.26-5.73-1.18.05-2.32.45-3.27,1.15-1.61,1.13-2.56,2.97-2.56,4.93h-1.54Z"/>
  <path class="st0" d="M62.32,0c-.05,1.33-.42,2.64-1.06,3.81-1.7,2.94-5.15,4.39-8.44,3.57-3.27-.82-5.62-3.7-5.76-7.07v-.31h1.54v.56c.31,3.33,3.26,5.78,6.6,5.47.35-.03.7-.1,1.04-.19,2.64-.71,4.46-3.11,4.44-5.84h1.64Z"/>
  <path class="st0" d="M70.93,82c.12-1.23.36-2.45.7-3.64,1.37-4.2,5.19-7.13,9.61-7.36l.76-.08v1.64c-.14,0-.27,0-.41,0-2.9.09-5.59,1.54-7.26,3.91-1.21,1.58-1.83,3.54-1.76,5.53h-1.64Z"/>
  <path class="st0" d="M0,23.17c2.18-.02,4.01,1.65,4.18,3.83.17,2.17-1.34,4.1-3.48,4.47l-.7.1v-1.64c.07,0,.13,0,.2,0,1.38-.09,2.44-1.24,2.44-2.62-.01-1.45-1.19-2.62-2.64-2.61v-1.53Z"/>
  <path class="st0" d="M50.43,82c.05-1.23.62-2.39,1.57-3.18,1.78-1.47,4.42-1.22,5.88.56.61.74.95,1.66.96,2.62h-1.54v-.36c-.2-1.38-1.43-2.37-2.82-2.27-1.38.08-2.45,1.25-2.41,2.63h-1.64Z"/>
  <path class="st0" d="M82,31.57c-1.03-.06-2.01-.45-2.8-1.11-1.3-1.18-1.74-3.04-1.1-4.67.62-1.6,2.18-2.65,3.9-2.62v1.53c-1.45,0-2.64,1.17-2.64,2.62,0,.04,0,.08,0,.12.04,1.42,1.22,2.53,2.64,2.49v1.64Z"/>
  <path class="st0" d="M0,50.43c1.03.06,2.01.45,2.8,1.11,1.3,1.18,1.74,3.04,1.1,4.67-.63,1.6-2.18,2.65-3.9,2.63v-1.54c.26-.02.51-.06.76-.11,1.24-.37,2.03-1.6,1.85-2.88-.16-1.31-1.29-2.29-2.61-2.24v-1.64Z"/>
  <path class="st0" d="M58.84,0c.02,2.19-1.66,4.01-3.84,4.18-2.16.16-4.09-1.34-4.47-3.47,0-.24-.07-.47-.1-.71h1.64c-.04,1.42,1.07,2.6,2.49,2.64,1.46.06,2.68-1.08,2.74-2.54,0-.03,0-.07,0-.1h1.54Z"/>
  <path class="st0" d="M82,58.84c-2.19.02-4.01-1.66-4.18-3.84-.18-2.17,1.32-4.12,3.47-4.49l.71-.1v1.64c-.07,0-.13,0-.2,0-1.45.13-2.52,1.4-2.39,2.85.12,1.35,1.24,2.39,2.59,2.4v1.54Z"/>
  <path class="st0" d="M23.17,82c-.03-2.3,1.81-4.2,4.11-4.23,2.08-.03,3.86,1.48,4.18,3.53,0,.23.07.47.11.7h-1.64s0-.1,0-.15c-.19-1.44-1.51-2.45-2.95-2.26-1.23.16-2.19,1.17-2.28,2.41h-1.53Z"/>
  <path class="st0" d="M82,7.59c-4.17.02-7.56-3.35-7.58-7.52,0-.02,0-.05,0-.07h1.58c-.03,3.31,2.64,6.02,5.95,6.05.02,0,.03,0,.05,0v1.54Z"/>
  <path class="st0" d="M31.57,0c0,.22-.07.44-.1.65-.34,2.16-2.29,3.7-4.47,3.53-2.18-.16-3.86-1.99-3.83-4.18h1.53v.36c.19,1.38,1.43,2.38,2.82,2.27,1.38-.08,2.46-1.24,2.41-2.63h1.64Z"/>
  <path class="st0" d="M7.59,0c.01,4.18-3.37,7.58-7.55,7.59-.01,0-.03,0-.04,0v-1.54c3.31.03,6.02-2.64,6.05-5.95,0-.03,0-.07,0-.1h1.54Z"/>
  <path class="st0" d="M0,74.42c4.17-.02,7.57,3.34,7.59,7.51,0,.02,0,.05,0,.07h-1.54c0-3.31-2.69-6-6-6l-.05-1.58Z"/>
  <path class="st0" d="M74.42,82c-.03-4.16,3.32-7.55,7.48-7.58.03,0,.07,0,.1,0v1.58c-3.31,0-6,2.69-6,6h-1.58Z"/>
  <path class="st0" d="M4.2,0c0,2.31-1.87,4.19-4.18,4.2,0,0-.01,0-.02,0v-1.53c1.46-.03,2.64-1.21,2.67-2.67h1.53Z"/>
  <path class="st0" d="M82,4.2c-2.32,0-4.2-1.88-4.2-4.2h1.54c.02,1.46,1.2,2.64,2.66,2.67v1.53Z"/>
  <path class="st0" d="M0,77.8c2.32,0,4.2,1.88,4.2,4.2h-1.53c-.03-1.46-1.21-2.64-2.67-2.66v-1.54Z"/>
  <path class="st0" d="M77.8,82c0-2.32,1.88-4.2,4.2-4.2v1.54c-1.46.02-2.64,1.2-2.66,2.66h-1.54Z"/>
  <path class="st0" d="M0,53.92c.38-.04.73.24.77.63,0,.02,0,.05,0,.07,0,.41-.22.7-.77.83v-1.53Z"/>
  <path class="st0" d="M82,55.45c-.55-.13-.82-.41-.77-.83,0-.39.31-.7.7-.7.02,0,.05,0,.07,0v1.53Z"/>
  <path class="st0" d="M28.09,0c.04.38-.24.73-.63.77-.03,0-.06,0-.08,0-.42.04-.79-.27-.83-.69,0-.03,0-.06,0-.08h1.54Z"/>
  <path class="st0" d="M53.92,82c-.04-.38.23-.72.61-.77.03,0,.06,0,.09,0,.42-.04.79.27.83.69,0,.03,0,.06,0,.08h-1.53Z"/>
  <path class="st0" d="M26.55,82c.06-.49.33-.8.83-.77.39,0,.71.3.71.69,0,.03,0,.06,0,.08h-1.54Z"/>
  <path class="st0" d="M0,26.55c.48.07.8.32.76.83.01.38-.29.7-.67.71-.03,0-.06,0-.09,0v-1.54Z"/>
  <path class="st0" d="M82,28.09c-.38.04-.72-.24-.76-.62,0-.03,0-.06,0-.09,0-.51.28-.76.76-.83v1.54Z"/>
  <path class="st0" d="M55.45,0c-.06.49-.33.8-.83.77-.38,0-.7-.29-.7-.68,0-.03,0-.06,0-.09h1.53Z"/>
  <path class="st0" d="M82,.82c-.42-.07-.75-.4-.82-.82h.82v.82Z"/>
  <path class="st0" d="M81.18,82c.07-.42.4-.75.82-.82v.82h-.82Z"/>
  <path class="st0" d="M0,81.18c.42.07.75.4.82.82h-.82v-.82Z"/>
  <path class="st0" d="M.82,0c-.07.42-.4.75-.82.82v-.82h.82Z"/>
  <path class="st0" d="M62.28,27.22c.06,4.2-3.3,7.66-7.5,7.72-4.2.06-7.66-3.3-7.72-7.5-.06-4.19,3.27-7.63,7.46-7.72,4.21-.07,7.69,3.28,7.76,7.5,0,0,0,0,0,0ZM60.71,27.35c.03-3.34-2.66-6.07-6-6.1s-6.07,2.66-6.1,6,2.66,6.07,6,6.1c0,0,.01,0,.02,0,3.31.04,6.04-2.61,6.08-5.92,0-.03,0-.05,0-.08Z"/>
  <path class="st0" d="M34.94,27.37c-.02,4.2-3.45,7.59-7.65,7.57-4.2-.02-7.59-3.45-7.57-7.65.02-4.19,3.43-7.58,7.62-7.57,4.2,0,7.6,3.4,7.6,7.6,0,.02,0,.03,0,.05ZM21.29,27.37c-.03,3.34,2.66,6.07,6,6.1,3.34.03,6.07-2.66,6.1-6,.03-3.34-2.66-6.07-6-6.1,0,0-.02,0-.03,0-3.31-.04-6.03,2.62-6.07,5.93,0,.01,0,.02,0,.03v.04Z"/>
  <path class="st0" d="M27.43,62.28c-4.2.05-7.65-3.31-7.7-7.51-.05-4.2,3.31-7.65,7.51-7.7,4.13-.05,7.55,3.21,7.7,7.34.14,4.21-3.15,7.73-7.35,7.88-.05,0-.1,0-.16,0ZM21.29,54.62c-.02,3.34,2.68,6.06,6.02,6.08,3.34.02,6.06-2.68,6.08-6.02s-2.68-6.06-6.02-6.08c-3.34-.02-6.06,2.68-6.08,6.02Z"/>
  <path class="st0" d="M62.28,54.8c-.07,4.2-3.54,7.55-7.74,7.47-4.2-.07-7.55-3.54-7.47-7.74.07-4.2,3.54-7.55,7.74-7.47.04,0,.08,0,.11,0,4.15.15,7.42,3.59,7.36,7.74ZM60.71,54.71c.03-3.34-2.66-6.07-6-6.1-3.34-.03-6.07,2.66-6.1,6-.03,3.32,2.63,6.04,5.95,6.1,3.31.08,6.07-2.54,6.15-5.85,0-.05,0-.1,0-.15Z"/>
  <path class="st0" d="M58.85,27.36c0,2.3-1.87,4.17-4.17,4.17-.02,0-.03,0-.05,0-2.32-.11-4.1-2.08-3.99-4.4.11-2.16,1.83-3.88,3.99-3.99,2.3-.03,4.19,1.82,4.22,4.12,0,.03,0,.07,0,.1ZM54.62,30c1.45,0,2.63-1.17,2.64-2.62s-1.17-2.63-2.62-2.64c-1.42,0-2.59,1.12-2.64,2.54-.06,1.44,1.06,2.66,2.5,2.72.04,0,.08,0,.12,0Z"/>
  <path class="st0" d="M23.14,27.29c.02-2.32,1.92-4.18,4.24-4.16,2.32.02,4.18,1.92,4.16,4.24-.02,2.32-1.92,4.18-4.24,4.16-.02,0-.03,0-.05,0-2.3-.04-4.14-1.94-4.11-4.24ZM27.31,30c1.45.01,2.64-1.15,2.65-2.61.01-1.45-1.15-2.64-2.6-2.65s-2.64,1.15-2.65,2.61c-.01,1.45,1.15,2.64,2.6,2.65Z"/>
  <path class="st0" d="M27.3,58.85c-2.3,0-4.17-1.88-4.16-4.18,0-.02,0-.03,0-.05.02-2.32,1.91-4.19,4.23-4.17,2.32.02,4.19,1.91,4.17,4.23-.02,2.32-1.91,4.19-4.23,4.17,0,0,0,0,0,0ZM27.3,52.04c-1.45.04-2.6,1.25-2.56,2.7.04,1.45,1.25,2.6,2.7,2.56,1.42-.04,2.55-1.19,2.56-2.61.05-1.44-1.09-2.65-2.53-2.69-.06,0-.12,0-.17,0v.04Z"/>
  <path class="st0" d="M58.85,54.72c-.02,2.31-1.92,4.17-4.23,4.15-2.31-.02-4.17-1.92-4.15-4.23h0c.02-2.31,1.92-4.17,4.23-4.15,2.31.02,4.17,1.92,4.15,4.23ZM54.67,52c-1.45,0-2.63,1.18-2.63,2.63s1.18,2.63,2.63,2.63,2.63-1.18,2.63-2.63-1.18-2.63-2.63-2.63Z"/>
  <path class="st0" d="M54.65,26.56c.43,0,.78.34.79.77,0,.41-.32.74-.73.77-.42.03-.78-.29-.81-.71,0-.01,0-.02,0-.03-.02-.42.31-.78.74-.8,0,0,0,0,.01,0Z"/>
  <path class="st0" d="M28.1,27.35c0,.41-.33.75-.75.75-.02,0-.03,0-.05,0-.42-.02-.76-.37-.74-.8,0,0,0,0,0-.01.03-.41.37-.73.78-.73.43,0,.77.35.76.78,0,0,0,0,0,.01Z"/>
  <path class="st0" d="M27.33,55.44c-.43-.05-.74-.44-.69-.86.04-.36.33-.65.69-.69.43-.05.81.26.86.69s-.26.81-.69.86c-.06,0-.12,0-.18,0Z"/>
  <path class="st0" d="M55.44,54.67c0,.43-.34.77-.77.77,0,0-.01,0-.02,0-.43-.01-.76-.36-.75-.79.01-.43.36-.76.79-.75.42.01.75.35.75.77Z"/>
</svg>